{"title":"My Name Is Khan (2010) Upscaled DVD Rip X264 AC3 [Dare DEvils]","uid":5510022,"size":1983488140,"categoryP":"video","categoryS":"hd___movies","magnet":"?xt=urn:btih:a3576ad01f85457c4a33bc21606707c50922d38a&amp;dn=My+Name+Is+Khan+%282010%29+Upscaled+DVD+Rip+X264+AC3+%5BDare+DEvils%5D&amp;tr=udp%3A%2F%2Ftracker.openbittorrent.com%3A80&amp;tr=udp%3A%2F%2Fopen.demonii.com%3A1337&amp;tr=udp%3A%2F%2Ftracker.coppersurfer.tk%3A6969&amp;tr=udp%3A%2F%2Fexodus.desync.com%3A6969","seeders":2,"leechers":1,"uploader":"luvwithromio","files":-1,"time":1272014958,"description":"Format                           : AVI\nFormat/Info                      : Audio Video Interleave\nFile size                        : 1.85 GiB\nDuration                         : 2h 35mn\nOverall bit rate                 : 1 705 Kbps\n\nVideo\nID                               : 0\nFormat                           : AVC\nFormat/Info                      : Advanced Video Codec\nFormat profile                   : &lt;a class=&quot;__cf_email__&quot; href=&quot;/cdn-cgi/l/email-protection&quot; data-cfemail=&quot;763e1f111e363a455847&quot;&gt;[email&amp;#160;protected]&lt;/a&gt;&lt;script cf-hash='f9e31' type=&quot;text/javascript&quot;&gt;\n/* &lt;![CDATA[ */!function(){try{var t=&quot;currentScript&quot;in document?document.currentScript:function(){for(var t=document.getElementsByTagName(&quot;script&quot;),e=t.length;e--;)if(t[e].getAttribute(&quot;cf-hash&quot;))return t[e]}();if(t&amp;&amp;t.previousSibling){var e,r,n,i,c=t.previousSibling,a=c.getAttribute(&quot;data-cfemail&quot;);if(a){for(e=&quot;&quot;,r=parseInt(a.substr(0,2),16),n=2;a.length-n;n+=2)i=parseInt(a.substr(n,2),16)^r,e+=String.fromCharCode(i);e=document.createTextNode(e),c.parentNode.replaceChild(e,c)}}}catch(u){}}();/* ]]&gt; */&lt;/script&gt;\nFormat settings, CABAC           : Yes\nFormat settings, ReFrames        : 3 frames\nCodec ID                         : H264\nDuration                         : 2h 35mn\nBit rate                         : 1 504 Kbps\nWidth                            : 896 pixels\nHeight                           : 544 pixels\nDisplay aspect ratio             : 1.647\nFrame rate                       : 23.976 fps\nResolution                       : 8 bits\nColorimetry                      : 4:2:0\nScan type                        : Progressive\nBits/(Pixel*Frame)               : 0.129\nStream size                      : 1.63 GiB (88%)\nWriting library                  : x264 core 68\n\nAudio\nID                               : 1\nFormat                           : AC-3\nFormat/Info                      : Audio Coding 3\nCodec ID                         : 2000\nDuration                         : 2h 34mn\nBit rate mode                    : Constant\nBit rate                         : 192 Kbps\nChannel(s)                       : 6 channels\nChannel positions                : Front: L C R, Surround: L R, LFE\nSampling rate                    : 48.0 KHz\nResolution                       : 16 bits\nStream size                      : 213 MiB (11%)\nAlignment                        : Aligned on interleaves\nInterleave, duration             : 42 ms (1.00 video frame)","torrent":{"xt":"urn:btih:a3576ad01f85457c4a33bc21606707c50922d38a","amp;dn":"My+Name+Is+Khan+%282010%29+Upscaled+DVD+Rip+X264+AC3+%5BDare+DEvils%5D","amp;tr":["udp%3A%2F%2Ftracker.openbittorrent.com%3A80","udp%3A%2F%2Fopen.demonii.com%3A1337","udp%3A%2F%2Ftracker.coppersurfer.tk%3A6969","udp%3A%2F%2Fexodus.desync.com%3A6969"],"infoHash":"a3576ad01f85457c4a33bc21606707c50922d38a","infoHashBuffer":{"type":"Buffer","data":[163,87,106,208,31,133,69,124,74,51,188,33,96,103,7,197,9,34,211,138]},"announce":[],"urlList":[]}}